<svg xmlns="http://www.w3.org/2000/svg" viewBox="0 0 623.44 195.18"><defs><style>.cls-1{font-size:72px;font-family:Ubuntu, Ubuntu;}.cls-1,.cls-5{fill:#333;}.cls-2,.cls-4{fill:#36c2de;}.cls-2{font-size:24px;}.cls-3,.cls-6{fill:none;}.cls-3{stroke:#36c2de;stroke-linecap:square;stroke-miterlimit:20;stroke-width:10px;}.cls-6{stroke:#333;stroke-linecap:round;stroke-width:5px;}</style></defs><title>Asset 3</title><g id="Layer_2" data-name="Layer 2"><g id="Mast"><text class="cls-1" transform="translate(185.14 181.57)">Scilab<tspan class="cls-2" x="189.64" y="0">Cloud</tspan></text><path class="cls-3" d="M383.37,150c26.7,2.47,43.87-.43,52-15,14.38-25.79-19-61-40-41,16-48-49.5-60.5-62-18,5.5-59.5-42.28-57.66-60-49-21.5,10.5-24.5,35.5-15,49-7.5-5.5-30.5-12.5-36,13-2,26,28,21,28,21"/><path class="cls-4" d="M182.37,64a10,10,0,1,1,10-10A10,10,0,0,1,182.37,64Z"/><path class="cls-5" d="M182.37,46a8,8,0,1,1-8,8,8,8,0,0,1,8-8m0-4a12,12,0,1,0,12,12,12,12,0,0,0-12-12Z"/><path class="cls-4" d="M242.37,85a10,10,0,1,1,10-10A10,10,0,0,1,242.37,85Z"/><path class="cls-5" d="M242.37,67a8,8,0,1,1-8,8,8,8,0,0,1,8-8m0-4a12,12,0,1,0,12,12,12,12,0,0,0-12-12Z"/><path class="cls-4" d="M342.37,22a10,10,0,1,1,10-10A10,10,0,0,1,342.37,22Z"/><path class="cls-5" d="M342.37,4a8,8,0,1,1-8,8,8,8,0,0,1,8-8m0-4a12,12,0,1,0,12,12,12,12,0,0,0-12-12Z"/><path class="cls-4" d="M322.37,63a10,10,0,1,1,10-10A10,10,0,0,1,322.37,63Z"/><path class="cls-5" d="M322.37,45a8,8,0,1,1-8,8,8,8,0,0,1,8-8m0-4a12,12,0,1,0,12,12,12,12,0,0,0-12-12Z"/><path class="cls-4" d="M486.37,81a10,10,0,1,1,10-10A10,10,0,0,1,486.37,81Z"/><path class="cls-5" d="M486.37,63a8,8,0,1,1-8,8,8,8,0,0,1,8-8m0-4a12,12,0,1,0,12,12,12,12,0,0,0-12-12Z"/><path class="cls-4" d="M392.37,134a10,10,0,1,1,10-10A10,10,0,0,1,392.37,134Z"/><path class="cls-5" d="M392.37,116a8,8,0,1,1-8,8,8,8,0,0,1,8-8m0-4a12,12,0,1,0,12,12,12,12,0,0,0-12-12Z"/><polyline class="cls-6" points="181.87 53.5 241.87 75.5 322.87 53.5 342.87 11.5 391.87 124.5 486.87 70.5"/></g></g></svg>
